# xmcd CD database file
#
# Track frame offsets:
#	150
#	1540
#	29160
#	53233
#	83348
#	129568
#	158604
#	180721
#	214615
#	249491
#
# Disc length: 3590 seconds
#
# Revision: 0
# Processed by: cddbd v1.4PL0 Copyright (c) Steve Scherf et al.
# Submitted via: CDex 1.50beta9
#
DISCID=720e040a
DTITLE=Tim Garland's Dean Street Underground Orchestra - Soho Story
DYEAR=2002
DGENRE=Jazz
TTITLE0=Peter's intro
TTITLE1=Mr Magic
TTITLE2='Round midnight
TTITLE3=Made by walking
TTITLE4=Bebe
TTITLE5=Rosa ballerina
TTITLE6=Little calypso
TTITLE7=Soho story
TTITLE8=I wish I knew what it was to be free
TTITLE9=Lullaby on Dean Street
EXTD=YEAR: 2002
EXTT0=
EXTT1=
EXTT2=
EXTT3=
EXTT4=
EXTT5=
EXTT6=
EXTT7=
EXTT8=
EXTT9=
PLAYORDER=
